<svg width="48" height="48" viewBox="0 0 48 48" fill="none" xmlns="http://www.w3.org/2000/svg">
  <circle cx="24" cy="24" r="24" fill="#888888" fill-opacity="0.5"/>
  <path fill-rule="evenodd" clip-rule="evenodd" d="M24 12C17.373 12 12 17.373 12 24C12 29.303 15.435 33.799 20.207 35.385C20.807 35.495 21.027 35.145 21.027 34.837C21.027 34.56 21.017 33.812 21.011 32.848C17.59 33.587 16.964 31.27 16.964 31.27C16.422 29.883 15.634 29.53 15.634 29.53C14.545 28.809 15.717 28.824 15.717 28.824C16.922 28.908 17.555 30.063 17.555 30.063C18.63 31.925 20.378 31.392 21.053 31.082C21.162 30.305 21.466 29.778 21.801 29.485C18.978 29.19 16.003 28.207 16.003 23.933C16.003 22.719 16.428 21.747 17.128 20.997C17.01 20.694 16.643 19.477 17.239 17.903C17.239 17.903 18.149 17.593 20.999 19.347C21.864 19.108 22.79 18.993 23.716 18.988C24.642 18.993 25.568 19.108 26.433 19.347C29.281 17.593 30.19 17.903 30.19 17.903C30.788 19.477 30.42 20.694 30.302 20.997C31.004 21.747 31.426 22.719 31.426 23.933C31.426 28.22 28.445 29.187 25.613 29.478C26.045 29.847 26.437 30.599 26.437 31.737C26.437 33.345 26.421 34.497 26.421 34.837C26.421 35.147 26.638 35.5 27.246 35.384C32.02 33.797 35.456 29.301 35.456 24C35.456 17.373 30.627 12 24 12Z" fill="white"/>
</svg>
